<mxfile host="65bd71144e">
    <diagram id="q3NBnHAWVTVmXU_XOz1d" name="Page-1">
        <mxGraphModel dx="537" dy="1439" grid="1" gridSize="10" guides="1" tooltips="1" connect="1" arrows="1" fold="1" page="1" pageScale="1" pageWidth="850" pageHeight="1100" math="0" shadow="0">
            <root>
                <mxCell id="0"/>
                <mxCell id="1" parent="0"/>
                <mxCell id="56" style="edgeStyle=none;html=1;entryX=0.5;entryY=0;entryDx=0;entryDy=0;" edge="1" parent="1" source="12" target="57">
                    <mxGeometry relative="1" as="geometry">
                        <mxPoint x="300" y="320" as="targetPoint"/>
                    </mxGeometry>
                </mxCell>
                <mxCell id="12" value="&lt;font style=&quot;color: rgb(0, 0, 0);&quot;&gt;Basement&lt;/font&gt;&lt;div&gt;&lt;span style=&quot;font-weight: 400;&quot;&gt;&lt;font style=&quot;color: rgb(0, 0, 0);&quot;&gt;(entrance)&lt;/font&gt;&lt;/span&gt;&lt;/div&gt;" style="whiteSpace=wrap;html=1;fillColor=#7F00FF;fontSize=8;fontStyle=1" parent="1" vertex="1">
                    <mxGeometry x="280" y="240" width="40" height="40" as="geometry"/>
                </mxCell>
                <mxCell id="24" style="edgeStyle=none;html=1;entryX=0.5;entryY=1;entryDx=0;entryDy=0;endArrow=none;endFill=0;" parent="1" source="13" target="23" edge="1">
                    <mxGeometry relative="1" as="geometry"/>
                </mxCell>
                <mxCell id="32" style="edgeStyle=none;html=1;entryX=0;entryY=0.5;entryDx=0;entryDy=0;endArrow=none;endFill=0;" parent="1" source="13" target="22" edge="1">
                    <mxGeometry relative="1" as="geometry"/>
                </mxCell>
                <mxCell id="49" style="edgeStyle=none;html=1;entryX=0.5;entryY=0;entryDx=0;entryDy=0;endArrow=none;endFill=0;" parent="1" source="13" target="12" edge="1">
                    <mxGeometry relative="1" as="geometry"/>
                </mxCell>
                <mxCell id="13" value="Common Room" style="whiteSpace=wrap;html=1;fontSize=8;fontStyle=1" parent="1" vertex="1">
                    <mxGeometry x="280" y="160" width="40" height="40" as="geometry"/>
                </mxCell>
                <mxCell id="18" value="Info Room&amp;nbsp;&lt;div&gt;2&lt;/div&gt;" style="whiteSpace=wrap;html=1;fontSize=8;fontStyle=1" parent="1" vertex="1">
                    <mxGeometry x="360" y="80" width="40" height="40" as="geometry"/>
                </mxCell>
                <mxCell id="19" value="Info Room&amp;nbsp;&lt;div&gt;1&lt;/div&gt;" style="whiteSpace=wrap;html=1;fontSize=8;fontStyle=1" parent="1" vertex="1">
                    <mxGeometry x="200" y="80" width="40" height="40" as="geometry"/>
                </mxCell>
                <mxCell id="29" style="edgeStyle=none;html=1;endArrow=none;endFill=0;entryX=0;entryY=0.5;entryDx=0;entryDy=0;" parent="1" source="21" target="53" edge="1">
                    <mxGeometry relative="1" as="geometry">
                        <mxPoint x="500" y="180" as="targetPoint"/>
                    </mxGeometry>
                </mxCell>
                <mxCell id="21" value="Path To Fields" style="whiteSpace=wrap;html=1;fontSize=8;fontStyle=1" parent="1" vertex="1">
                    <mxGeometry x="440" y="160" width="40" height="40" as="geometry"/>
                </mxCell>
                <mxCell id="28" style="edgeStyle=none;html=1;entryX=0;entryY=0.5;entryDx=0;entryDy=0;endArrow=none;endFill=0;" parent="1" source="22" target="21" edge="1">
                    <mxGeometry relative="1" as="geometry"/>
                </mxCell>
                <mxCell id="22" value="Back Courtyard" style="whiteSpace=wrap;html=1;fontSize=8;fontStyle=1" parent="1" vertex="1">
                    <mxGeometry x="360" y="160" width="40" height="40" as="geometry"/>
                </mxCell>
                <mxCell id="25" style="edgeStyle=none;html=1;entryX=1;entryY=0.5;entryDx=0;entryDy=0;endArrow=none;endFill=0;" parent="1" source="23" target="19" edge="1">
                    <mxGeometry relative="1" as="geometry"/>
                </mxCell>
                <mxCell id="26" style="edgeStyle=none;html=1;entryX=0;entryY=0.5;entryDx=0;entryDy=0;endArrow=none;endFill=0;" parent="1" source="23" target="18" edge="1">
                    <mxGeometry relative="1" as="geometry"/>
                </mxCell>
                <mxCell id="39" style="edgeStyle=none;html=1;entryX=0.5;entryY=1;entryDx=0;entryDy=0;endArrow=none;endFill=0;" parent="1" source="23" target="38" edge="1">
                    <mxGeometry relative="1" as="geometry"/>
                </mxCell>
                <mxCell id="23" value="" style="whiteSpace=wrap;html=1;fontSize=8;fontStyle=1" parent="1" vertex="1">
                    <mxGeometry x="280" y="80" width="40" height="40" as="geometry"/>
                </mxCell>
                <mxCell id="42" style="edgeStyle=none;html=1;entryX=1;entryY=0.5;entryDx=0;entryDy=0;endArrow=none;endFill=0;" parent="1" source="38" target="40" edge="1">
                    <mxGeometry relative="1" as="geometry"/>
                </mxCell>
                <mxCell id="43" style="edgeStyle=none;html=1;entryX=0;entryY=0.5;entryDx=0;entryDy=0;endArrow=none;endFill=0;" parent="1" source="38" target="41" edge="1">
                    <mxGeometry relative="1" as="geometry"/>
                </mxCell>
                <mxCell id="45" style="edgeStyle=none;html=1;entryX=0.5;entryY=1;entryDx=0;entryDy=0;endArrow=none;endFill=0;" parent="1" source="38" target="44" edge="1">
                    <mxGeometry relative="1" as="geometry"/>
                </mxCell>
                <mxCell id="38" value="" style="whiteSpace=wrap;html=1;fontSize=8;fontStyle=1" parent="1" vertex="1">
                    <mxGeometry x="280" width="40" height="40" as="geometry"/>
                </mxCell>
                <mxCell id="40" value="&lt;span style=&quot;color: rgb(0, 0, 0);&quot;&gt;Info Room&amp;nbsp;&lt;/span&gt;&lt;div&gt;3&lt;/div&gt;" style="whiteSpace=wrap;html=1;fontSize=8;fontStyle=1" parent="1" vertex="1">
                    <mxGeometry x="200" width="40" height="40" as="geometry"/>
                </mxCell>
                <mxCell id="41" value="&lt;span style=&quot;color: rgb(0, 0, 0);&quot;&gt;Info Room&amp;nbsp;&lt;/span&gt;&lt;div&gt;4&lt;/div&gt;" style="whiteSpace=wrap;html=1;fontSize=8;fontStyle=1" parent="1" vertex="1">
                    <mxGeometry x="360" width="40" height="40" as="geometry"/>
                </mxCell>
                <mxCell id="44" value="???" style="whiteSpace=wrap;html=1;fontSize=8;fontStyle=1" parent="1" vertex="1">
                    <mxGeometry x="280" y="-80" width="40" height="40" as="geometry"/>
                </mxCell>
                <mxCell id="55" style="edgeStyle=none;html=1;entryX=0.5;entryY=1;entryDx=0;entryDy=0;" edge="1" parent="1" source="50" target="58">
                    <mxGeometry relative="1" as="geometry">
                        <mxPoint x="540" y="40" as="targetPoint"/>
                    </mxGeometry>
                </mxCell>
                <mxCell id="50" value="Fields Entrance" style="whiteSpace=wrap;html=1;fontSize=8;fontStyle=1;fillColor=#7F00FF;" vertex="1" parent="1">
                    <mxGeometry x="520" y="80" width="40" height="40" as="geometry"/>
                </mxCell>
                <mxCell id="54" style="edgeStyle=none;html=1;entryX=0.5;entryY=1;entryDx=0;entryDy=0;endArrow=none;endFill=0;" edge="1" parent="1" source="53" target="50">
                    <mxGeometry relative="1" as="geometry"/>
                </mxCell>
                <mxCell id="53" value="Path To Fields" style="whiteSpace=wrap;html=1;fontSize=8;fontStyle=1" vertex="1" parent="1">
                    <mxGeometry x="520" y="160" width="40" height="40" as="geometry"/>
                </mxCell>
                <mxCell id="57" value="D" style="ellipse;whiteSpace=wrap;html=1;fontStyle=1" vertex="1" parent="1">
                    <mxGeometry x="285" y="320" width="30" height="30" as="geometry"/>
                </mxCell>
                <mxCell id="58" value="N" style="ellipse;whiteSpace=wrap;html=1;fontStyle=1" vertex="1" parent="1">
                    <mxGeometry x="525" y="10" width="30" height="30" as="geometry"/>
                </mxCell>
            </root>
        </mxGraphModel>
    </diagram>
</mxfile>